<svg xmlns="http://www.w3.org/2000/svg" width="32" height="32" viewBox="0 0 32 32">
  <!-- Favicon optimizado - Azul Nocturno Simple -->
  <defs>
    <linearGradient id="book-simple" x1="0%" y1="0%" x2="0%" y2="100%">
      <stop offset="0%" stop-color="#3b82f6"/>
      <stop offset="100%" stop-color="#1e293b"/>
    </linearGradient>
    <linearGradient id="sparkle-gold" x1="0%" y1="0%" x2="100%" y2="100%">
      <stop offset="0%" stop-color="#fbbf24"/>
      <stop offset="100%" stop-color="#f59e0b"/>
    </linearGradient>
  </defs>
  
  <!-- Libro simplificado -->
  <rect x="3" y="6" width="26" height="20" rx="2" fill="url(#book-simple)" stroke="#1e293b" stroke-width="1"/>
  
  <!-- División central -->
  <line x1="16" y1="6" x2="16" y2="26" stroke="#60a5fa" stroke-width="1" opacity="0.7"/>
  
  <!-- Pantalla digital izquierda -->
  <rect x="6" y="10" width="7" height="12" rx="1" fill="#0f172a" opacity="0.6"/>
  <rect x="7" y="11" width="5" height="10" rx="0.5" fill="#60a5fa" opacity="0.3"/>
  
  <!-- Indicadores de contenido -->
  <rect x="8" y="13" width="3" height="1" rx="0.5" fill="#93c5fd"/>
  <rect x="8" y="15" width="2" height="1" rx="0.5" fill="#60a5fa"/>
  <circle cx="9.5" cy="18" r="1" fill="none" stroke="#93c5fd" stroke-width="0.8"/>
  
  <!-- Laboratorio derecho -->
  <rect x="19" y="10" width="7" height="12" rx="1" fill="#1e293b" opacity="0.4"/>
  <!-- Matraz simple -->
  <path d="M21 14 L23 14 L24 17 Q24 17.5 22 17.5 Q20 17.5 20 17 Z" 
        fill="none" 
        stroke="#60a5fa" 
        stroke-width="1.2"/>
  <rect x="21.7" y="13" width="0.6" height="1" fill="none" stroke="#60a5fa" stroke-width="1"/>
  
  <!-- Los 3 destellos de IA obligatorios -->
  <!-- Destello principal -->
  <path d="M 25 8 L 26 10 L 28 11 L 26 12 L 25 14 L 24 12 L 22 11 L 24 10 Z" 
        fill="url(#sparkle-gold)"/>
  
  <!-- Destello secundario -->
  <path d="M 28 4 L 28.5 5.2 L 29.7 5.7 L 28.5 6.2 L 28 7.4 L 27.5 6.2 L 26.3 5.7 L 27.5 5.2 Z" 
        fill="#06b6d4"/>
  
  <!-- Destello pequeño -->
  <path d="M 30 9 L 30.3 9.5 L 30.8 9.8 L 30.3 10.1 L 30 10.6 L 29.7 10.1 L 29.2 9.8 L 29.7 9.5 Z" 
        fill="#fbbf24"/>
</svg>
